<?xml version="1.0" encoding="utf-8"?>
<!-- Generator: Adobe Illustrator 25.4.1, SVG Export Plug-In . SVG Version: 6.00 Build 0)  -->
<svg version="1.1" xmlns="http://www.w3.org/2000/svg" xmlns:xlink="http://www.w3.org/1999/xlink" x="0px" y="0px"
	 viewBox="0 0 500 500" style="enable-background:new 0 0 500 500;" xml:space="preserve">
<style type="text/css">
	.st0{display:none;}
	.st1{display:inline;fill:#FFFFFF;stroke:#000000;stroke-miterlimit:10;}
</style>
<g id="Border" class="st0">
	<rect x="50" y="51" class="st1" width="400" height="400"/>
</g>
<g id="Layer_2">
	<g>
		<path d="M250,91c42.74,0,82.92,16.64,113.14,46.86C393.36,168.08,410,208.26,410,251s-16.64,82.92-46.86,113.14
			S292.74,411,250,411H110c-11.03,0-20-8.97-20-20V111c0-11.03,8.97-20,20-20H250 M250,51H110c-33.14,0-60,26.86-60,60v280
			c0,33.14,26.86,60,60,60h140c110.46,0,200-89.54,200-200v0C450,140.54,360.46,51,250,51L250,51z"/>
	</g>
</g>
</svg>
