<?xml version="1.0" encoding="utf-8"?>
<!-- Generator: Adobe Illustrator 25.4.1, SVG Export Plug-In . SVG Version: 6.00 Build 0)  -->
<svg version="1.1" xmlns="http://www.w3.org/2000/svg" xmlns:xlink="http://www.w3.org/1999/xlink" x="0px" y="0px"
	 viewBox="0 0 500 500" style="enable-background:new 0 0 500 500;" xml:space="preserve">
<style type="text/css">
	.st0{display:none;}
	.st1{display:inline;fill:#FFFFFF;stroke:#000000;stroke-miterlimit:10;}
	.st2{display:inline;fill:none;stroke:#000000;stroke-linecap:round;stroke-linejoin:round;stroke-miterlimit:10;}
	.st3{fill:none;stroke:#000000;stroke-width:40;stroke-linecap:round;stroke-linejoin:round;stroke-miterlimit:10;}
</style>
<g id="Border" class="st0">
	<rect x="50" y="51" class="st1" width="400" height="400"/>
	<rect x="50" y="51" class="st2" width="40" height="40"/>
	<rect x="50" y="411" class="st2" width="40" height="40"/>
	<line class="st2" x1="50" y1="251" x2="450" y2="250"/>
	<rect x="350" y="51" class="st2" width="100" height="400"/>
</g>
<g id="Layer_2">
	<g>
		<path d="M274.85,91c14.05,0,26.8,8.27,33.28,21.59l44.63,91.69c-13.65,11.01-22.4,27.86-22.4,46.73
			c0,18.64,8.55,35.33,21.93,46.34l-44.3,91.93c-6.46,13.4-19.24,21.73-33.35,21.73h-166.9c2.01-8.03,3.04-16.36,3.04-24.85V115.85
			c0-8.49-1.03-16.83-3.04-24.85H274.85 M274.85,51H62.75c-11.34,0-17.02,14.15-9,22.43v0c10.9,11.25,17.02,26.51,17.02,42.43
			v270.29c0,15.91-6.12,31.17-17.02,42.43c-8.02,8.28-2.34,22.43,9,22.43h211.88c29.41,0,56.28-17.18,69.38-44.37l58.23-120.82
			c5.24-10.88,7.93-22.68,8.1-34.5c-0.17,10.9-9.04,19.69-19.98,19.69c-11.05,0-20-8.95-20-20s8.95-20,20-20
			c10.98,0,19.89,8.85,19.99,19.81c0.1-12.52-2.65-25.06-8.24-36.55L344.09,95.08C330.93,68.06,304.14,51,274.85,51L274.85,51z
			 M410.34,251.31L410.34,251.31L410.34,251.31z"/>
	</g>
	<circle class="st3" cx="390.35" cy="251" r="40"/>
</g>
</svg>
