<?xml version="1.0" encoding="utf-8"?>
<!-- Generator: Adobe Illustrator 25.4.1, SVG Export Plug-In . SVG Version: 6.00 Build 0)  -->
<svg version="1.1" xmlns="http://www.w3.org/2000/svg" xmlns:xlink="http://www.w3.org/1999/xlink" x="0px" y="0px"
	 viewBox="0 0 500 500" style="enable-background:new 0 0 500 500;" xml:space="preserve">
<style type="text/css">
	.st0{display:none;}
	.st1{display:inline;fill:#FFFFFF;stroke:#000000;stroke-miterlimit:10;}
	.st2{display:inline;fill:none;stroke:#000000;stroke-linecap:round;stroke-linejoin:round;stroke-miterlimit:10;}
	.st3{fill:none;stroke:#000000;stroke-width:40;stroke-linecap:round;stroke-linejoin:round;stroke-miterlimit:10;}
</style>
<g id="Border" class="st0">
	<rect x="50" y="51" class="st1" width="400" height="400"/>
	<rect x="50" y="51" class="st2" width="40" height="40"/>
	<rect x="50" y="411" class="st2" width="40" height="40"/>
	<line class="st2" x1="50" y1="251" x2="450" y2="250"/>
	<rect x="350" y="51" class="st2" width="100" height="400"/>
</g>
<g id="Layer_2">
	<path class="st3" d="M70,71l16.38,17.88c10.89,11.88,16.61,25.26,16.61,38.85v246.54c0,13.6-5.71,26.97-16.61,38.85L70,431"/>
	<circle class="st3" cx="389.54" cy="251" r="40"/>
	<g>
		<path d="M305.02,91c3.69,0,10.97,5.61,15.62,18.07l34.61,92.72c-14.68,10.25-24.61,26.91-25.62,46.01
			c-0.87,16.39,5.1,32.6,16.38,44.49c2.7,2.85,5.67,5.41,8.84,7.65l-34.31,92.83c-4.65,12.57-11.97,18.23-15.68,18.23H185.94
			c1.71-8.04,2.59-16.39,2.59-24.85V115.85c0-8.46-0.88-16.81-2.59-24.85H305.02 M305.02,51H142.38c-8.69,0-13.05,14.15-6.9,22.43
			l0,0c8.36,11.25,13.05,26.51,13.05,42.43v270.29c0,15.91-4.7,31.17-13.05,42.43h0c-6.15,8.28-1.79,22.43,6.9,22.43h162.47
			c22.55,0,43.16-17.18,53.2-44.37l44.65-120.82c3.41-9.22,5.39-19.1,6-29.1c-2.46,8.26-10.1,14.29-19.16,14.29
			c-11.41,0-20.58-9.55-19.97-21.09c0.55-10.45,9.38-18.85,19.85-18.91c0.04,0,0.08,0,0.13,0c9.24,0,16.99,6.27,19.29,14.78
			c-0.44-10.83-2.52-21.57-6.23-31.52L358.11,95.08C348.03,68.06,327.48,51,305.02,51L305.02,51z M408.7,256.71L408.7,256.71
			L408.7,256.71z"/>
	</g>
</g>
</svg>
